<svg xmlns="http://www.w3.org/2000/svg" width="143" height="36" viewBox="0 0 143 36">
    <g fill="#CCE7FF" fill-rule="evenodd">
        <path d="M131.66 21.669c1.22 0 2.245-.442 3.076-1.328.831-.884 1.247-2.045 1.247-3.483 0-1.438-.416-2.598-1.247-3.483-.83-.884-1.857-1.327-3.076-1.327-1.247 0-2.28.443-3.096 1.327-.819.885-1.227 2.045-1.227 3.483 0 1.438.408 2.599 1.227 3.483.817.886 1.85 1.328 3.096 1.328M123.575 9.02c2.12-2.075 4.815-3.11 8.085-3.11 3.27 0 5.965 1.035 8.085 3.11 2.12 2.073 3.18 4.686 3.18 7.837 0 3.152-1.06 5.765-3.18 7.838-2.12 2.074-4.815 3.111-8.085 3.111-3.27 0-5.965-1.037-8.085-3.111-2.12-2.073-3.18-4.686-3.18-7.838 0-3.151 1.06-5.764 3.18-7.837M84.244 6.49h6.347l.208 2.115c.083.526.028.967-.167 1.327h.083c.416-.885 1.082-1.68 1.996-2.385a7.25 7.25 0 0 1 3.076-1.389c.72-.193 1.385-.249 1.996-.166 2.715.138 4.586 1.369 5.611 3.691 1.884-2.516 4.129-3.774 6.734-3.774 2.245 0 3.997.705 5.258 2.115 1.261 1.41 1.892 3.498 1.892 6.262V26.84a.386.386 0 0 1-.388.387h-6.624a.387.387 0 0 1-.387-.387V15.241c0-1.797-.693-2.696-2.08-2.696-1.384 0-2.313.52-2.784 1.555-.471 1.037-.706 2.482-.706 4.334v8.405a.387.387 0 0 1-.387.387h-6.667a.386.386 0 0 1-.387-.387V15.241c0-1.797-.68-2.696-2.037-2.696-1.386 0-2.322.52-2.806 1.555-.486 1.037-.728 2.482-.728 4.334v8.405a.386.386 0 0 1-.387.387h-6.666a.387.387 0 0 1-.387-.387V6.877c0-.214.173-.386.387-.386M59.446 35.279v-5.76c0-.26.25-.441.499-.368a7.38 7.38 0 0 0 2.079.289c2.022 0 2.78-.1 3.834-2.09L57.594 7.023a.387.387 0 0 1 .36-.532h7.201c.17 0 .322.11.371.273l2.078 6.776c.943 3.097 1.58 5.434 1.913 7.01.11-.194.442-1.335.998-3.422.554-2.088.885-3.283.996-3.588l2.078-6.776c.05-.162.2-.273.371-.273h7.174c.271 0 .458.27.362.524l-7.822 20.46c-2.246 6.027-5.04 8.269-9.946 8.517-1.026.027-1.913-.014-2.66-.125-.616-.059-1.068-.133-1.356-.22a.381.381 0 0 1-.266-.368M45.74 21.669c1.22 0 2.224-.442 3.014-1.328.79-.884 1.184-2.045 1.184-3.483 0-1.438-.4-2.598-1.205-3.483-.803-.884-1.801-1.327-2.993-1.327-1.163 0-2.155.429-2.972 1.285-.817.857-1.227 2.032-1.227 3.525 0 1.493.41 2.668 1.227 3.525.817.857 1.809 1.286 2.972 1.286M33.851 34.795V6.877c0-.214.174-.386.387-.386h6.306l.165 1.534-.083 1.328h.083c.471-.996 1.31-1.82 2.515-2.468 1.206-.65 2.53-.975 3.97-.975 2.743 0 5.044.98 6.9 2.944 1.857 1.963 2.785 4.632 2.785 8.004 0 4.036-1.308 7.062-3.926 9.08-1.671 1.288-3.738 1.915-5.85 1.866-1.255-.03-2.388-.278-3.401-.744-1.08-.498-1.912-1.147-2.494-1.95h-.082c.082.36.124.94.124 1.742v7.943a.387.387 0 0 1-.388.388h-6.624a.388.388 0 0 1-.387-.388M8.562 22.72h13.645v-1.336H8.562v1.336zm0 4.188h13.645v-1.336H8.562v1.336zm.44-16.519h2.004V5.932H9.003v4.457zm3.296 3.56a3.738 3.738 0 0 0 6.157-.063l1.21.819a5.197 5.197 0 0 1-4.31 2.292 5.21 5.21 0 0 1-4.252-2.205l1.195-.843zm7.465-3.56h2.003V5.932h-2.003v4.457zM4.66 28.571c0 .91-.74 1.65-1.65 1.65-.909 0-1.649-.74-1.649-1.65V17.283H4.66V28.57zM25.672.118A.618.618 0 0 0 25.307 0H5.312a.622.622 0 0 0-.622.62v15.301H.68a.68.68 0 0 0-.68.681v11.97c0 1.375.928 2.534 2.19 2.893.331.15.699.236 1.086.236h19.997c.11 0 .218-.008.325-.022h.077a2.251 2.251 0 0 0 2.252-2.251v-.378V.62a.624.624 0 0 0-.255-.502z"/>
    </g>
</svg>
