<?xml version="1.0" encoding="UTF-8"?>
<svg width="329px" height="70px" viewBox="0 0 329 70" version="1.1" xmlns="http://www.w3.org/2000/svg" xmlns:xlink="http://www.w3.org/1999/xlink">
    <!-- Generator: Sketch 53.2 (72643) - https://sketchapp.com -->
    <title>pymo_logo_footer</title>
    <desc>Created with Sketch.</desc>
    <g id="Components" stroke="none" stroke-width="1" fill="none" fill-rule="evenodd">
        <g id="pymo_landing_footer" transform="translate(-71.000000, -57.000000)" fill="#CCE7FF">
            <g id="pymo_logo_footer" transform="translate(71.000000, 57.000000)">
                <path d="M158.28,56.912 L158.28,59.968 L162.92,59.968 L162.92,61.456 L158.28,61.456 L158.28,66 L156.568,66 L156.568,55.44 L164.2,55.44 L164.2,56.912 L158.28,56.912 Z M172.482,64.88 C172.716668,64.88 172.913999,64.8586669 173.074,64.816 L172.962,65.968 C172.673999,66.0960006 172.343335,66.16 171.97,66.16 C171.511331,66.16 171.146001,66.0693342 170.874,65.888 C170.601999,65.7066658 170.423334,65.4026688 170.338,64.976 C170.092665,65.3493352 169.730002,65.639999 169.25,65.848 C168.769998,66.056001 168.231336,66.16 167.634,66.16 C166.855329,66.16 166.226002,65.9786685 165.746,65.616 C165.265998,65.2533315 165.026,64.7360034 165.026,64.064 C165.026,63.4346635 165.287331,62.9040022 165.81,62.472 C166.332669,62.0399978 167.111328,61.7333342 168.146,61.552 L170.178,61.2 L170.178,60.768 C170.178,60.2773309 170.034001,59.8906681 169.746,59.608 C169.457999,59.3253319 169.058003,59.184 168.546,59.184 C167.489995,59.184 166.802002,59.6639952 166.482,60.624 L165.154,59.92 C165.346001,59.2799968 165.737997,58.7733352 166.33,58.4 C166.922003,58.0266648 167.649996,57.84 168.514,57.84 C169.548672,57.84 170.369997,58.0799976 170.978,58.56 C171.586003,59.0400024 171.89,59.7439954 171.89,60.672 L171.89,64.288 C171.89,64.4906677 171.935333,64.6399995 172.026,64.736 C172.116667,64.8320005 172.268666,64.88 172.482,64.88 Z M168.002,64.864 C168.578003,64.864 169.084664,64.7253347 169.522,64.448 C169.959336,64.1706653 170.178,63.802669 170.178,63.344 L170.178,62.384 L168.434,62.736 C167.879331,62.8426672 167.468668,62.991999 167.202,63.184 C166.935332,63.376001 166.802,63.6319984 166.802,63.952 C166.802,64.2506682 166.905999,64.4773326 167.114,64.632 C167.322001,64.7866674 167.617998,64.864 168.002,64.864 Z M178.444,57.84 C180.193342,57.84 181.350664,58.5866592 181.916,60.08 L180.316,60.72 C180.038665,59.7066616 179.414672,59.2 178.444,59.2 C177.72933,59.2 177.174669,59.4453309 176.78,59.936 C176.385331,60.4266691 176.188,61.1199955 176.188,62.016 C176.188,62.9120045 176.385331,63.5999976 176.78,64.08 C177.174669,64.5600024 177.72933,64.8 178.444,64.8 C178.988003,64.8 179.425332,64.666668 179.756,64.4 C180.086668,64.133332 180.305333,63.7493358 180.412,63.248 L181.98,63.776 C181.745332,64.5226704 181.329336,65.1066646 180.732,65.528 C180.134664,65.9493354 179.382671,66.16 178.476,66.16 C177.217327,66.16 176.233337,65.7920037 175.524,65.056 C174.814663,64.3199963 174.46,63.3013398 174.46,62 C174.46,60.6986602 174.811996,59.6800037 175.516,58.944 C176.220004,58.2079963 177.195994,57.84 178.444,57.84 Z M189.414,65.472 C189.157999,65.6853344 188.846002,65.8533327 188.478,65.976 C188.109998,66.0986673 187.712669,66.16 187.286,66.16 C186.549996,66.16 185.960669,65.9760018 185.518,65.608 C185.075331,65.2399982 184.848667,64.6666706 184.838,63.888 L184.838,59.344 L183.318,59.344 L183.318,58 L184.838,58 L184.838,56.128 L186.55,55.648 L186.55,58 L189.35,58 L189.35,59.344 L186.55,59.344 L186.55,63.6 C186.55,63.9840019 186.653999,64.2693324 186.862,64.456 C187.070001,64.6426676 187.355332,64.736 187.718,64.736 C188.208669,64.736 188.640665,64.565335 189.014,64.224 L189.414,65.472 Z M198.512,58 L198.512,66 L196.992,66 L196.928,64.704 C196.383997,65.6746715 195.434673,66.16 194.08,66.16 C193.215996,66.16 192.520003,65.922669 191.992,65.448 C191.463997,64.973331 191.2,64.2453382 191.2,63.264 L191.2,58 L192.912,58 L192.912,62.816 C192.912,63.5200035 193.050665,64.0186652 193.328,64.312 C193.605335,64.6053348 194.015997,64.752 194.56,64.752 C195.21067,64.752 195.746665,64.5466687 196.168,64.136 C196.589335,63.7253313 196.8,63.120004 196.8,62.32 L196.8,58 L198.512,58 Z M205.546,57.84 C205.919335,57.84 206.212666,57.8933328 206.426,58 L206.154,59.568 C205.908665,59.4293326 205.572669,59.36 205.146,59.36 C204.804665,59.36 204.482002,59.4506658 204.178,59.632 C203.873998,59.8133342 203.623334,60.0853315 203.426,60.448 C203.228666,60.8106685 203.13,61.2479974 203.13,61.76 L203.13,66 L201.418,66 L201.418,58 L202.874,58 L203.018,59.44 C203.466002,58.373328 204.30866,57.84 205.546,57.84 Z M215.028,64.88 C215.262668,64.88 215.459999,64.8586669 215.62,64.816 L215.508,65.968 C215.219999,66.0960006 214.889335,66.16 214.516,66.16 C214.057331,66.16 213.692001,66.0693342 213.42,65.888 C213.147999,65.7066658 212.969334,65.4026688 212.884,64.976 C212.638665,65.3493352 212.276002,65.639999 211.796,65.848 C211.315998,66.056001 210.777336,66.16 210.18,66.16 C209.401329,66.16 208.772002,65.9786685 208.292,65.616 C207.811998,65.2533315 207.572,64.7360034 207.572,64.064 C207.572,63.4346635 207.833331,62.9040022 208.356,62.472 C208.878669,62.0399978 209.657328,61.7333342 210.692,61.552 L212.724,61.2 L212.724,60.768 C212.724,60.2773309 212.580001,59.8906681 212.292,59.608 C212.003999,59.3253319 211.604003,59.184 211.092,59.184 C210.035995,59.184 209.348002,59.6639952 209.028,60.624 L207.7,59.92 C207.892001,59.2799968 208.283997,58.7733352 208.876,58.4 C209.468003,58.0266648 210.195996,57.84 211.06,57.84 C212.094672,57.84 212.915997,58.0799976 213.524,58.56 C214.132003,59.0400024 214.436,59.7439954 214.436,60.672 L214.436,64.288 C214.436,64.4906677 214.481333,64.6399995 214.572,64.736 C214.662667,64.8320005 214.814666,64.88 215.028,64.88 Z M210.548,64.864 C211.124003,64.864 211.630664,64.7253347 212.068,64.448 C212.505336,64.1706653 212.724,63.802669 212.724,63.344 L212.724,62.384 L210.98,62.736 C210.425331,62.8426672 210.014668,62.991999 209.748,63.184 C209.481332,63.376001 209.348,63.6319984 209.348,63.952 C209.348,64.2506682 209.451999,64.4773326 209.66,64.632 C209.868001,64.7866674 210.163998,64.864 210.548,64.864 Z M221.614,57.84 C221.987335,57.84 222.280666,57.8933328 222.494,58 L222.222,59.568 C221.976665,59.4293326 221.640669,59.36 221.214,59.36 C220.872665,59.36 220.550002,59.4506658 220.246,59.632 C219.941998,59.8133342 219.691334,60.0853315 219.494,60.448 C219.296666,60.8106685 219.198,61.2479974 219.198,61.76 L219.198,66 L217.486,66 L217.486,58 L218.942,58 L219.086,59.44 C219.534002,58.373328 220.37666,57.84 221.614,57.84 Z M236.626,61.76 C236.626,62.0693349 236.604667,62.3626653 236.562,62.64 L230.706,62.64 C230.802,63.3440035 231.052665,63.8799982 231.458,64.248 C231.863335,64.6160018 232.385997,64.8 233.026,64.8 C233.548669,64.8 233.983332,64.7066676 234.33,64.52 C234.676668,64.3333324 234.913999,64.0640018 235.042,63.712 L236.466,64.304 C235.868664,65.5413395 234.722008,66.16 233.026,66.16 C231.767327,66.16 230.783337,65.7920037 230.074,65.056 C229.364663,64.3199963 229.01,63.3013398 229.01,62 C229.01,60.6879934 229.35133,59.6666703 230.034,58.936 C230.71667,58.2053297 231.67666,57.84 232.914,57.84 C234.087339,57.84 234.99933,58.1973298 235.65,58.912 C236.30067,59.6266702 236.626,60.5759941 236.626,61.76 Z M232.914,59.2 C232.29533,59.2 231.796669,59.3813315 231.418,59.744 C231.039331,60.1066685 230.802,60.6346632 230.706,61.328 L235.026,61.328 C234.940666,60.6559966 234.714002,60.1333352 234.346,59.76 C233.977998,59.3866648 233.50067,59.2 232.914,59.2 Z M241.916,66.16 C241.105329,66.16 240.388003,66.0213347 239.764,65.744 C239.139997,65.4666653 238.668002,65.0453362 238.348,64.48 L239.5,63.488 C239.702668,63.946669 240.017331,64.2826656 240.444,64.496 C240.870669,64.7093344 241.382664,64.816 241.98,64.816 C242.524003,64.816 242.945332,64.7280009 243.244,64.552 C243.542668,64.3759991 243.692,64.1440014 243.692,63.856 C243.692,63.5999987 243.553335,63.3946674 243.276,63.24 C242.998665,63.0853326 242.51867,62.9386674 241.836,62.8 C240.651994,62.5759989 239.820002,62.2773352 239.34,61.904 C238.859998,61.5306648 238.62,61.0026701 238.62,60.32 C238.62,59.8826645 238.753332,59.4746686 239.02,59.096 C239.286668,58.7173314 239.673331,58.4133345 240.18,58.184 C240.686669,57.9546655 241.286663,57.84 241.98,57.84 C242.865338,57.84 243.574664,57.9866652 244.108,58.28 C244.641336,58.5733348 245.051999,59.0293302 245.34,59.648 L244.124,60.544 C243.931999,60.0746643 243.662668,59.7306678 243.316,59.512 C242.969332,59.2933322 242.529336,59.184 241.996,59.184 C241.515998,59.184 241.118668,59.2826657 240.804,59.48 C240.489332,59.6773343 240.332,59.9039987 240.332,60.16 C240.332,60.4480014 240.473332,60.6773325 240.756,60.848 C241.038668,61.0186675 241.55333,61.1733326 242.3,61.312 C243.430672,61.5146677 244.230664,61.8026648 244.7,62.176 C245.169336,62.5493352 245.404,63.0719966 245.404,63.744 C245.404,64.4586702 245.09467,65.0399978 244.476,65.488 C243.85733,65.9360022 243.004005,66.16 241.916,66.16 Z M260.096,64.88 C260.330668,64.88 260.527999,64.8586669 260.688,64.816 L260.576,65.968 C260.287999,66.0960006 259.957335,66.16 259.584,66.16 C259.125331,66.16 258.760001,66.0693342 258.488,65.888 C258.215999,65.7066658 258.037334,65.4026688 257.952,64.976 C257.706665,65.3493352 257.344002,65.639999 256.864,65.848 C256.383998,66.056001 255.845336,66.16 255.248,66.16 C254.469329,66.16 253.840002,65.9786685 253.36,65.616 C252.879998,65.2533315 252.64,64.7360034 252.64,64.064 C252.64,63.4346635 252.901331,62.9040022 253.424,62.472 C253.946669,62.0399978 254.725328,61.7333342 255.76,61.552 L257.792,61.2 L257.792,60.768 C257.792,60.2773309 257.648001,59.8906681 257.36,59.608 C257.071999,59.3253319 256.672003,59.184 256.16,59.184 C255.103995,59.184 254.416002,59.6639952 254.096,60.624 L252.768,59.92 C252.960001,59.2799968 253.351997,58.7733352 253.944,58.4 C254.536003,58.0266648 255.263996,57.84 256.128,57.84 C257.162672,57.84 257.983997,58.0799976 258.592,58.56 C259.200003,59.0400024 259.504,59.7439954 259.504,60.672 L259.504,64.288 C259.504,64.4906677 259.549333,64.6399995 259.64,64.736 C259.730667,64.8320005 259.882666,64.88 260.096,64.88 Z M255.616,64.864 C256.192003,64.864 256.698664,64.7253347 257.136,64.448 C257.573336,64.1706653 257.792,63.802669 257.792,63.344 L257.792,62.384 L256.048,62.736 C255.493331,62.8426672 255.082668,62.991999 254.816,63.184 C254.549332,63.376001 254.416,63.6319984 254.416,63.952 C254.416,64.2506682 254.519999,64.4773326 254.728,64.632 C254.936001,64.7866674 255.231998,64.864 255.616,64.864 Z M272.202,57.84 C272.735336,57.84 273.225998,57.9493322 273.674,58.168 C274.122002,58.3866678 274.479332,58.7199978 274.746,59.168 C275.012668,59.6160022 275.146,60.1653301 275.146,60.816 L275.146,66 L273.434,66 L273.434,61.088 C273.434,60.4586635 273.284668,59.9946682 272.986,59.696 C272.687332,59.3973318 272.287336,59.248 271.786,59.248 C271.19933,59.248 270.706002,59.4613312 270.306,59.888 C269.905998,60.3146688 269.706,60.9013296 269.706,61.648 L269.706,66 L267.994,66 L267.994,61.088 C267.994,60.4586635 267.844668,59.9946682 267.546,59.696 C267.247332,59.3973318 266.847336,59.248 266.346,59.248 C266.004665,59.248 265.674002,59.3359991 265.354,59.512 C265.033998,59.6880009 264.772668,59.9626648 264.57,60.336 C264.367332,60.7093352 264.266,61.1786638 264.266,61.744 L264.266,66 L262.554,66 L262.554,58 L264.074,58 L264.154,59.328 C264.420668,58.8373309 264.783331,58.4666679 265.242,58.216 C265.700669,57.9653321 266.201997,57.84 266.746,57.84 C267.343336,57.84 267.884664,57.9759986 268.37,58.248 C268.855336,58.5200014 269.215332,58.9173307 269.45,59.44 C269.695335,58.9173307 270.071331,58.5200014 270.578,58.248 C271.084669,57.9759986 271.625997,57.84 272.202,57.84 Z M278.852,56.656 C278.489332,56.656 278.206668,56.5626676 278.004,56.376 C277.801332,56.1893324 277.7,55.925335 277.7,55.584 C277.7,55.242665 277.801332,54.9813342 278.004,54.8 C278.206668,54.6186658 278.489332,54.528 278.852,54.528 C279.214668,54.528 279.494666,54.6186658 279.692,54.8 C279.889334,54.9813342 279.988,55.242665 279.988,55.584 C279.988,55.925335 279.889334,56.1893324 279.692,56.376 C279.494666,56.5626676 279.214668,56.656 278.852,56.656 Z M279.7,66 L277.988,66 L277.988,58 L279.7,58 L279.7,66 Z M287.278,64.752 C288.088671,64.752 288.717998,64.9333315 289.166,65.296 C289.614002,65.6586685 289.838,66.1599968 289.838,66.8 C289.838,67.3440027 289.659335,67.8133314 289.302,68.208 C288.944665,68.6026686 288.454003,68.9066656 287.83,69.12 C287.205997,69.3333344 286.504671,69.44 285.726,69.44 C284.45666,69.44 283.50467,69.2533352 282.87,68.88 C282.23533,68.5066648 281.918,68.0106698 281.918,67.392 C281.918,67.0293315 282.043332,66.7120014 282.294,66.44 C282.544668,66.1679986 282.893998,65.9733339 283.342,65.856 C283.000665,65.6959992 282.728668,65.4906679 282.526,65.24 C282.323332,64.9893321 282.222,64.6880018 282.222,64.336 C282.222,63.5573294 282.637996,63.0240014 283.47,62.736 C283.064665,62.5013322 282.758001,62.1973352 282.55,61.824 C282.341999,61.4506648 282.238,61.0240024 282.238,60.544 C282.238,60.010664 282.381999,59.5386687 282.67,59.128 C282.958001,58.7173313 283.365997,58.4000011 283.894,58.176 C284.422003,57.9519989 285.02733,57.84 285.71,57.84 C286.29667,57.84 286.835331,57.9253325 287.326,58.096 C287.475334,57.5093304 287.744665,57.0640015 288.134,56.76 C288.523335,56.4559985 289.037997,56.3093333 289.678,56.32 L289.966,57.648 C289.453997,57.6373333 289.040668,57.7013326 288.726,57.84 C288.411332,57.9786674 288.195334,58.1866653 288.078,58.464 C288.430002,58.7093346 288.701999,59.0079982 288.894,59.36 C289.086001,59.7120018 289.182,60.1066645 289.182,60.544 C289.182,61.3653374 288.86467,62.0213309 288.23,62.512 C287.59533,63.0026691 286.755339,63.248 285.71,63.248 C285.219331,63.248 284.776669,63.2000005 284.382,63.104 C284.115332,63.1680003 283.920667,63.2719993 283.798,63.416 C283.675333,63.5600007 283.614,63.7493322 283.614,63.984 C283.614,64.2293346 283.701999,64.418666 283.878,64.552 C284.054001,64.685334 284.296665,64.752 284.606,64.752 L287.278,64.752 Z M285.71,59.04 C285.219331,59.04 284.808668,59.1813319 284.478,59.464 C284.147332,59.7466681 283.982,60.1066645 283.982,60.544 C283.982,60.9920022 284.147332,61.3573319 284.478,61.64 C284.808668,61.9226681 285.219331,62.064 285.71,62.064 C286.211336,62.064 286.624665,61.9226681 286.95,61.64 C287.275335,61.3573319 287.438,60.9920022 287.438,60.544 C287.438,60.0959978 287.275335,59.7333347 286.95,59.456 C286.624665,59.1786653 286.211336,59.04 285.71,59.04 Z M285.886,68.16 C286.664671,68.16 287.272664,68.0480011 287.71,67.824 C288.147336,67.5999989 288.366,67.3226683 288.366,66.992 C288.366,66.725332 288.259334,66.5226674 288.046,66.384 C287.832666,66.2453326 287.475336,66.176 286.974,66.176 L284.814,66.176 C284.333998,66.176 283.974001,66.2506659 283.734,66.4 C283.493999,66.5493341 283.374,66.757332 283.374,67.024 C283.374,67.3866685 283.584665,67.6666657 284.006,67.864 C284.427335,68.0613343 285.053996,68.16 285.886,68.16 Z M298.648,64.88 C298.882668,64.88 299.079999,64.8586669 299.24,64.816 L299.128,65.968 C298.839999,66.0960006 298.509335,66.16 298.136,66.16 C297.677331,66.16 297.312001,66.0693342 297.04,65.888 C296.767999,65.7066658 296.589334,65.4026688 296.504,64.976 C296.258665,65.3493352 295.896002,65.639999 295.416,65.848 C294.935998,66.056001 294.397336,66.16 293.8,66.16 C293.021329,66.16 292.392002,65.9786685 291.912,65.616 C291.431998,65.2533315 291.192,64.7360034 291.192,64.064 C291.192,63.4346635 291.453331,62.9040022 291.976,62.472 C292.498669,62.0399978 293.277328,61.7333342 294.312,61.552 L296.344,61.2 L296.344,60.768 C296.344,60.2773309 296.200001,59.8906681 295.912,59.608 C295.623999,59.3253319 295.224003,59.184 294.712,59.184 C293.655995,59.184 292.968002,59.6639952 292.648,60.624 L291.32,59.92 C291.512001,59.2799968 291.903997,58.7733352 292.496,58.4 C293.088003,58.0266648 293.815996,57.84 294.68,57.84 C295.714672,57.84 296.535997,58.0799976 297.144,58.56 C297.752003,59.0400024 298.056,59.7439954 298.056,60.672 L298.056,64.288 C298.056,64.4906677 298.101333,64.6399995 298.192,64.736 C298.282667,64.8320005 298.434666,64.88 298.648,64.88 Z M294.168,64.864 C294.744003,64.864 295.250664,64.7253347 295.688,64.448 C296.125336,64.1706653 296.344,63.802669 296.344,63.344 L296.344,62.384 L294.6,62.736 C294.045331,62.8426672 293.634668,62.991999 293.368,63.184 C293.101332,63.376001 292.968,63.6319984 292.968,63.952 C292.968,64.2506682 293.071999,64.4773326 293.28,64.632 C293.488001,64.7866674 293.783998,64.864 294.168,64.864 Z M305.41,57.84 C306.508672,57.84 307.372664,58.210663 308.002,58.952 C308.631336,59.693337 308.946,60.7146602 308.946,62.016 C308.946,63.3173398 308.631336,64.3333297 308.002,65.064 C307.372664,65.7946703 306.508672,66.16 305.41,66.16 C304.780664,66.16 304.228669,66.0106682 303.754,65.712 C303.279331,65.4133318 302.924668,65.0133358 302.69,64.512 L302.61,66 L301.106,66 L301.106,54.4 L302.818,54.4 L302.818,59.28 C303.063335,58.8319978 303.412664,58.4800013 303.866,58.224 C304.319336,57.9679987 304.833997,57.84 305.41,57.84 Z M305.026,64.784 C305.719337,64.784 306.260665,64.5386691 306.65,64.048 C307.039335,63.5573309 307.234,62.874671 307.234,62 C307.234,61.125329 307.039335,60.4453358 306.65,59.96 C306.260665,59.4746642 305.719337,59.232 305.026,59.232 C304.37533,59.232 303.855335,59.4506645 303.466,59.888 C303.076665,60.3253355 302.860667,60.9279962 302.818,61.696 L302.818,62.304 C302.860667,63.0826706 303.076665,63.6906645 303.466,64.128 C303.855335,64.5653355 304.37533,64.784 305.026,64.784 Z M313.084,63.664 C313.084,64.0586686 313.142666,64.3333326 313.26,64.488 C313.377334,64.6426674 313.595998,64.72 313.916,64.72 C314.118668,64.72 314.291999,64.7066668 314.436,64.68 C314.580001,64.6533332 314.758666,64.5973338 314.972,64.512 L314.78,65.888 C314.417332,66.0693342 313.974669,66.16 313.452,66.16 C312.73733,66.16 312.212002,65.9786685 311.876,65.616 C311.539998,65.2533315 311.372,64.6826706 311.372,63.904 L311.372,54.4 L313.084,54.4 L313.084,63.664 Z M323.814,61.76 C323.814,62.0693349 323.792667,62.3626653 323.75,62.64 L317.894,62.64 C317.99,63.3440035 318.240665,63.8799982 318.646,64.248 C319.051335,64.6160018 319.573997,64.8 320.214,64.8 C320.736669,64.8 321.171332,64.7066676 321.518,64.52 C321.864668,64.3333324 322.101999,64.0640018 322.23,63.712 L323.654,64.304 C323.056664,65.5413395 321.910008,66.16 320.214,66.16 C318.955327,66.16 317.971337,65.7920037 317.262,65.056 C316.552663,64.3199963 316.198,63.3013398 316.198,62 C316.198,60.6879934 316.53933,59.6666703 317.222,58.936 C317.90467,58.2053297 318.86466,57.84 320.102,57.84 C321.275339,57.84 322.18733,58.1973298 322.838,58.912 C323.48867,59.6266702 323.814,60.5759941 323.814,61.76 Z M320.102,59.2 C319.48333,59.2 318.984669,59.3813315 318.606,59.744 C318.227331,60.1066685 317.99,60.6346632 317.894,61.328 L322.214,61.328 C322.128666,60.6559966 321.902002,60.1333352 321.534,59.76 C321.165998,59.3866648 320.68867,59.2 320.102,59.2 Z M326.988667,63.84 C327.351335,63.84 327.641999,63.943999 327.860667,64.152 C328.079334,64.360001 328.188667,64.6399982 328.188667,64.992 C328.188667,65.3440018 328.079334,65.6266656 327.860667,65.84 C327.641999,66.0533344 327.351335,66.16 326.988667,66.16 C326.625998,66.16 326.332668,66.0533344 326.108667,65.84 C325.884666,65.6266656 325.772667,65.3440018 325.772667,64.992 C325.772667,64.6399982 325.881999,64.360001 326.100667,64.152 C326.319334,63.943999 326.615332,63.84 326.988667,63.84 Z" id="Facturaresamigable." fill-rule="nonzero"></path>
                <g id="pymo_logo_navbar">
                    <path d="M239.550758,35.2804783 C241.763988,35.2804783 243.625879,34.4878198 245.134326,32.8983527 C246.642774,31.3109607 247.398049,29.2276384 247.398049,26.6463107 C247.398049,24.067058 246.642774,21.9837357 245.134326,20.3963437 C243.625879,18.8089516 241.763988,18.0142181 239.550758,18.0142181 C237.287035,18.0142181 235.412521,18.8089516 233.92932,20.3963437 C232.444015,21.9837357 231.703466,24.067058 231.703466,26.6463107 C231.703466,29.2276384 232.444015,31.3109607 233.92932,32.8983527 C235.412521,34.4878198 237.287035,35.2804783 239.550758,35.2804783 M224.874429,12.5818099 C228.722337,8.85921994 233.613745,7 239.550758,7 C245.485666,7 250.379178,8.85921994 254.227086,12.5818099 C258.074994,16.3023248 260,20.991875 260,26.6463107 C260,32.3028213 258.074994,36.9923716 254.227086,40.7128865 C250.379178,44.4354764 245.485666,46.2967714 239.550758,46.2967714 C233.613745,46.2967714 228.722337,44.4354764 224.874429,40.7128865 C221.026521,36.9923716 219.101515,32.3028213 219.101515,26.6463107 C219.101515,20.991875 221.026521,16.3023248 224.874429,12.5818099 M153.476698,8.04166117 L164.999384,8.04166117 L165.37597,11.8368769 C165.527445,12.781012 165.426462,13.5736705 165.073018,14.2190024 L165.224494,14.2190024 C165.979769,12.6316104 167.187369,11.2039951 168.847292,9.93823151 C170.507215,8.67454296 172.367002,7.84453406 174.43086,7.44612978 C175.739444,7.09960107 176.944939,7 178.053658,7.14732658 C182.982936,7.39632925 186.37852,9.60415293 188.240411,13.7728726 C191.659137,9.25762421 195.734258,7 200.463672,7 C204.538793,7 207.719787,8.26368855 210.008755,10.7952157 C212.297724,13.3246678 213.442208,17.072158 213.442208,22.0335362 L213.442208,44.5599778 C213.442208,44.9438569 213.128737,45.2530352 212.739529,45.2530352 L200.714028,45.2530352 C200.326923,45.2530352 200.011348,44.9438569 200.011348,44.5599778 L200.011348,23.7454296 C200.011348,20.520845 198.753257,18.9064777 196.237074,18.9064777 C193.722996,18.9064777 192.037826,19.8381627 191.181567,21.6973826 C190.327411,23.5586776 189.900334,26.1524554 189.900334,29.474566 L189.900334,44.5599778 C189.900334,44.9438569 189.584759,45.2530352 189.197654,45.2530352 L177.096415,45.2530352 C176.707206,45.2530352 176.393735,44.9438569 176.393735,44.5599778 L176.393735,23.7454296 C176.393735,20.520845 175.158786,18.9064777 172.695199,18.9064777 C170.179017,18.9064777 168.481225,19.8381627 167.601823,21.6973826 C166.720318,23.5586776 166.280617,26.1524554 166.280617,29.474566 L166.280617,44.5599778 C166.280617,44.9438569 165.967146,45.2530352 165.577937,45.2530352 L153.476698,45.2530352 C153.089593,45.2530352 152.774019,44.9438569 152.774019,44.5599778 L152.774019,8.7347186 C152.774019,8.35083949 153.089593,8.04166117 153.476698,8.04166117 M108.463119,59.7055652 L108.463119,49.3678043 C108.463119,48.9029994 108.915443,48.5772209 109.367767,48.7079473 C110.560639,49.052401 111.81873,49.2267028 113.142041,49.2267028 C116.813227,49.2267028 118.189132,49.0482509 120.101515,45.4771376 L105.101196,8.99617141 C104.913955,8.53966651 105.254776,8.04166117 105.753384,8.04166117 L118.826593,8.04166117 C119.135857,8.04166117 119.409355,8.24086331 119.499819,8.53136642 L123.271989,20.6930718 C124.982404,26.2499814 126.139512,30.4436014 126.743311,33.2718567 C126.943175,32.925328 127.546975,30.8772811 128.55471,27.1318659 C129.560342,23.3843757 130.162038,21.2388027 130.364005,20.6930718 L134.136175,8.53136642 C134.22664,8.24086331 134.500138,8.04166117 134.809401,8.04166117 L147.832118,8.04166117 C148.324415,8.04166117 148.663132,8.52721638 148.488514,8.98164625 L134.289755,45.699165 C130.212529,56.516256 125.140192,60.5397241 116.234673,60.9858539 C114.372782,61.0335794 112.763351,60.9609537 111.406379,60.7617515 C110.289245,60.6559254 109.468751,60.523124 108.944897,60.3654223 C108.654568,60.2782713 108.463119,60.0064434 108.463119,59.7055652 M83.5811038,35.2804783 C85.7943345,35.2804783 87.6183565,34.4878198 89.0510657,32.8983527 C90.4858788,31.3109607 91.2011815,29.2276384 91.2011815,26.6463107 C91.2011815,24.067058 90.4732558,21.9837357 89.0131968,20.3963437 C87.5552415,18.8089516 85.7438426,18.0142181 83.5811038,18.0142181 C81.4688569,18.0142181 79.6679771,18.7840514 78.1847759,20.3216429 C76.7015747,21.8592343 75.9589222,23.967457 75.9589222,26.6463107 C75.9589222,29.3272394 76.7015747,31.435462 78.1847759,32.9730535 C79.6679771,34.510645 81.4688569,35.2804783 83.5811038,35.2804783 M62,58.8382059 L62,8.7347186 C62,8.35083949 62.3155747,8.04166117 62.7026797,8.04166117 L74.149627,8.04166117 L74.450475,10.7952157 L74.2989991,13.1773412 L74.450475,13.1773412 C75.3046306,11.3907471 76.8278046,9.91333124 79.0157894,8.74924376 C81.2037741,7.58308125 83.6063497,7 86.2214123,7 C91.2011815,7 95.3772871,8.75961887 98.7476252,12.2830067 C102.117963,15.8063944 103.803132,20.5955458 103.803132,26.6463107 C103.803132,33.8902134 101.427907,39.3205466 96.6753512,42.9414604 C93.6416261,45.2530352 89.8904945,46.3797723 86.0573135,46.2905463 C83.7788639,46.2365958 81.7213167,45.792541 79.8825679,44.956307 C77.921797,44.0619724 76.4112459,42.897885 75.3551225,41.4578195 L75.2057505,41.4578195 C75.3551225,42.1031514 75.4308604,43.1448126 75.4308604,44.582803 L75.4308604,58.8382059 C75.4308604,59.222085 75.1173895,59.5333384 74.7281807,59.5333384 L62.7026797,59.5333384 C62.3155747,59.5333384 62,59.222085 62,58.8382059" id="Fill-1-Copy"></path>
                    <path d="M13,35 L35,35 L35,33 L13,33 L13,35 Z M13,42 L35,42 L35,40 L13,40 L13,42 Z M14,16 L17,16 L17,9 L14,9 L14,16 Z M18.9535013,21.1011814 C20.0991177,22.6965653 21.9669343,23.6498578 23.9504809,23.6498578 C25.984103,23.6498578 27.8786265,22.6593743 29.0192354,21 L31,22.3159046 C29.4148319,24.6228396 26.7797472,26 23.9504809,26 C21.1913202,26 18.5929576,24.6753446 17,22.4564647 L18.9535013,21.1011814 Z M31,16 L34,16 L34,9 L31,9 L31,16 Z M7,44.4506813 C7,45.8563312 5.87845646,47 4.5,47 C3.12154354,47 2,45.8563312 2,44.4506813 L2,27 L7,27 L7,44.4506813 Z M40.5958497,0.186248725 C40.4268707,0.0644087811 40.2277554,0 40.0189534,0 L8.39943822,0.000536739842 C8.19009805,0.000536739842 7.99044456,0.0649455209 7.8214656,0.186248725 C7.56853531,0.369813751 7.41731529,0.666094144 7.41731529,0.977939992 L7.41731529,3.48558854 L7.41731529,3.48558854 L7.41731529,25.1113735 L1.07629911,25.1113735 C0.482182,25.1113735 0,25.5922924 0,26.1848532 L0,45.0630669 C0,47.2320326 1.46699568,49.061242 3.46191607,49.6269658 C3.98715004,49.8647416 4.56835156,50 5.1813039,50 L36.8024335,50 C36.9767939,50 37.1479255,49.9860448 37.3163663,49.9651119 L37.4390644,49.9651119 C39.4054629,49.9651119 40.9994619,48.3752885 40.9994619,46.4140411 L40.9994619,45.8177231 C40.9994619,45.8166497 41,45.8155762 41,45.8155762 L41,0.977939992 C41,0.666630884 40.84878,0.370887231 40.5958497,0.186248725 L40.5958497,0.186248725 Z" id="Fill-1"></path>
                </g>
            </g>
        </g>
    </g>
</svg>